<svg xmlns="http://www.w3.org/2000/svg" style="width:0; height:0; visibility:hidden;">
	<symbol id="add" viewBox="0 0 16 16">
		<path fill-rule="evenodd" d="M8 0a8 8 0 1 0 0 16A8 8 0 0 0 8 0zm4 9H9v3H7V9H4V7h3V4h2v3h3v2z"/>
	</symbol>
	<symbol id="chevron-down" viewBox="0 0 10 5">
		<path d="M5 5L0 1.072.683 0 5 3.391 9.317 0 10 1.072 5 5z"/>
	</symbol>
	<symbol id="chevron-left" viewBox="0 0 7.13 14">
		<path d="M0 7l5.598-7 1.528.956L2.293 7l4.833 6.043L5.598 14 0 7z"/>
	</symbol>
	<symbol id="chevron-right" viewBox="0 0 7.12 14">
		<path d="M7.12 7l-5.598 7-1.528-.957L4.827 7-.006.956 1.522 0 7.12 7z"/>
	</symbol>
	<symbol id="chevron-up" viewBox="0 0 10 5">
		<path d="M5 0l5 3.928L9.317 5 5 1.609.683 5 0 3.928 5 0z" class="cls-1"/>
	</symbol>
	<symbol id="close" viewBox="0 0 25 25">
		<path d="M25 2.924L22.08 0 12.5 9.576 2.92 0 0 2.924 9.58 12.5 0 22.076 2.92 25l9.58-9.576L22.08 25 25 22.076 15.42 12.5z"/>
	</symbol>
	<symbol id="cursor" viewBox="0 0 347.451 347.451">
		<path d="M289.834 194.854L57.617 0v303.138l65.863-79.077 57.537 123.39 63.442-29.584-57.538-123.389z"/>
	</symbol>
	<symbol id="facebook" viewBox="0 0 11.094 22.81">
		<path class="cls-1" d="M2.392 4.41v3.14h-2.4v3.84h2.4V22.8h4.937V11.39h3.312s.311-1.84.462-3.86H7.348V4.91a1.137 1.137 0 0 1 1.07-.92h2.69v-4H7.45c-5.179 0-5.058 3.84-5.058 4.42zm0 0"/>
	</symbol>
	<symbol id="github-octocat" viewBox="0 0 100 100">
		<path fill-rule="evenodd" clip-rule="evenodd" d="M49.941 99.039C22.826 99.039.846 77.059.846 49.943.846 22.828 22.826.847 49.941.847c27.116 0 49.098 21.982 49.098 49.096 0 27.116-21.981 49.096-49.098 49.096zm0-90.609c-22.926 0-41.513 18.586-41.513 41.513 0 18.678 12.335 34.474 29.304 39.689-.006-.951.006-6.691-.008-7.696-.092-.056-9.734 2.825-13.88-4.128-.659-1.13-1.73-5.102-4.622-7.3-.101-.086-2.239-1.172-2.435-2.239-.022-.148.137-.46.348-.536.22-.081 3.735-1.518 7.652 3.43 1.182 1.656 3.849 8.008 13.183 4.083.251-.979.751-3.236 3.715-3.852-13.9-1.654-20.248-6.929-22.219-18.758-1.23-8.062 1.135-14.764 4.688-18.072-.539-.703-2.312-6.596.444-12.828 2.987-.595 8.466 1.539 13.282 4.99 6.792-2.441 19.543-1.807 24.106 0 2.168-1.785 9.913-5.953 13.236-4.981.976 2.474 2.383 8.468.438 12.837 4.327 4.433 5.548 10.158 4.767 17.188-.956 10.655-7.515 18.267-22.243 19.523 3.71 2.546 3.874 6.53 4.002 8.101.033 3.663-.042 8.649.005 10.225 16.948-5.225 29.265-21.012 29.265-39.676C91.455 27.016 72.869 8.43 49.941 8.43z"/>
	</symbol>
	<symbol id="grid" viewBox="0 0 35 35">
		<path d="M0 0h16v16H0zm19 0h16v16H19zM0 19h16v16H0zm19 0h16v16H19z"/>
	</symbol>
	<symbol id="hamburger" viewBox="0 0 31 25">
		<path fill-rule="evernodd" d="M0 0h31v4H0V0zm0 21h31v4H0v-4zm0-11h31v4H0v-4z"/>
	</symbol>
	<symbol id="heart" viewBox="0 0 510 510">
		<path d="M255 489.6l-35.7-35.7C86.7 336.6 0 257.55 0 160.65 0 81.6 61.2 20.4 140.25 20.4c43.35 0 86.7 20.4 114.75 53.55C283.05 40.8 326.4 20.4 369.75 20.4 448.8 20.4 510 81.6 510 160.65c0 96.9-86.7 175.95-219.3 293.25L255 489.6z"/>
	</symbol>
	<symbol id="input" viewBox="0 0 41 41">
		<path d="M27.999 10.5H0v20h27.999v-20zm-4 16H4v-12h19.999v12zM41 6.5v-4H27v4h5v28h-5v4h14v-4h-5v-28h5z"/>
	</symbol>
	<symbol id="instagram" viewBox="0 0 25.531 24.72">
		<path class="cls-1" d="M3.289.01h18.972a3.148 3.148 0 0 1 3.276 3.17v18.37a3.148 3.148 0 0 1-3.276 3.17H3.289a3.148 3.148 0 0 1-3.275-3.17V3.18A3.148 3.148 0 0 1 3.289.01zm15.318 2.74a1.135 1.135 0 0 0-1.149 1.12v2.66a1.134 1.134 0 0 0 1.149 1.11h2.885a1.133 1.133 0 0 0 1.148-1.11V3.87a1.135 1.135 0 0 0-1.148-1.12h-2.885zm4.046 7.71h-2.247a7.006 7.006 0 0 1 .327 2.12 7.95 7.95 0 0 1-15.867 0 7.006 7.006 0 0 1 .327-2.12H2.85V20.9a1 1 0 0 0 1.015.98h17.773a1 1 0 0 0 1.015-.98V10.46zM12.8 7.5a4.82 4.82 0 1 0 5.126 4.81A4.974 4.974 0 0 0 12.8 7.5zm0 0"/>
	</symbol>
	<symbol id="maginifer" viewBox="0 0 17 17">
		<path d="M17 15.803L15.803 17l-3.655-3.656C10.866 14.365 9.265 15 7.5 15A7.5 7.5 0 1 1 15 7.5c0 1.765-.635 3.366-1.655 4.647L17 15.803zM7.5 2a5.5 5.5 0 1 0 0 11 5.5 5.5 0 1 0 0-11z"/>
	</symbol>
	<symbol id="pinterest" viewBox="0 0 19.968 25">
		<path class="cls-1" d="M10.594-.01c-7.047 0-10.6 4.89-10.6 8.97 0 2.47.965 4.66 3.037 5.48a.517.517 0 0 0 .742-.36c.069-.25.231-.89.3-1.15a.679.679 0 0 0-.214-.8 4.047 4.047 0 0 1-.978-2.81 6.919 6.919 0 0 1 7.3-6.88c3.983 0 6.171 2.36 6.171 5.5 0 4.14-1.892 7.63-4.7 7.63a2.24 2.24 0 0 1-2.34-2.76c.445-1.82 1.308-3.78 1.308-5.09a1.949 1.949 0 0 0-2-2.16c-1.586 0-2.859 1.59-2.859 3.72a5.4 5.4 0 0 0 .472 2.27s-1.624 6.65-1.907 7.82a15.564 15.564 0 0 0-.045 5.45.2.2 0 0 0 .353.08 15.122 15.122 0 0 0 2.677-4.69c.182-.64 1.043-3.95 1.043-3.95a4.3 4.3 0 0 0 3.623 1.79c4.767 0 8-4.21 8-9.84 0-4.25-3.726-8.22-9.389-8.22zm0 0"/>
	</symbol>
	<symbol id="rss" viewBox="0 0 16 16">
		<path d="M15.751 16h-3.113a.248.248 0 0 1-.245-.247c0-6.704-5.448-12.158-12.146-12.158A.247.247 0 0 1 0 3.349V.248C0 .111.111 0 .247 0c8.651 0 15.696 7.023 15.739 15.676l.014.077a.25.25 0 0 1-.249.247zM.247 5.226c5.771 0 10.475 4.682 10.518 10.45l.012.077a.248.248 0 0 1-.248.246H7.506a.246.246 0 0 1-.246-.246c0-3.871-3.148-7.019-7.013-7.019A.248.248 0 0 1 0 8.487V5.474c0-.137.111-.248.247-.248zm2.125 6.028a2.375 2.375 0 0 1 2.372 2.374A2.376 2.376 0 0 1 2.372 16 2.376 2.376 0 0 1 0 13.628a2.375 2.375 0 0 1 2.372-2.374z"/>
	</symbol>
	<symbol id="text" viewBox="0 0 475.082 475.082">
		<path d="M473.371 433.11c-10.657-3.997-20.458-6.563-29.407-7.706-8.945-.767-15.516-2.95-19.701-6.567-2.475-1.529-5.808-6.95-9.996-16.279-7.806-15.604-13.989-29.786-18.555-42.537-7.427-20.181-13.617-35.789-18.565-46.829-10.845-25.311-19.982-47.678-27.401-67.092-4.001-10.466-15.797-38.731-35.405-84.796L255.813 24.265l-3.142-5.996h-36.543l-79.94 206.704-67.665 175.874c-5.33 9.896-9.9 16.372-13.706 19.417-3.996 2.848-14.466 5.805-31.405 8.843-11.042 2.102-18.654 3.812-22.841 5.141L0 456.812h5.996c16.37 0 32.264-1.334 47.679-3.997l13.706-2.279c53.868 3.806 87.082 5.708 99.642 5.708.381-1.902.571-4.476.571-7.706 0-5.715-.094-11.231-.287-16.563-3.996-.568-7.851-1.143-11.561-1.711-3.711-.575-6.567-1.047-8.565-1.431-1.997-.373-3.284-.568-3.855-.568-14.657-2.094-24.46-5.14-29.407-9.134-3.236-2.282-4.854-6.375-4.854-12.278 0-3.806 2.19-11.796 6.567-23.982 14.277-39.776 24.172-65.856 29.692-78.224l128.483.568 26.269 65.096 13.411 32.541c1.144 3.241 1.711 6.283 1.711 9.138s-1.14 5.428-3.426 7.707c-2.285 1.905-8.753 4.093-19.417 6.563l-37.404 7.994c-.763 6.283-1.136 13.702-1.136 22.271l16.56-.575 57.103-3.138c10.656-.38 23.51-.575 38.547-.575 18.264 0 36.251.763 53.957 2.282 21.313 1.523 39.588 2.283 54.819 2.283.192-2.283.281-4.754.281-7.423 0-3.422-.569-8.842-1.711-16.269zM251.245 270.941c-2.666 0-7.662-.052-14.989-.144-7.327-.089-18.649-.233-33.973-.425-15.321-.195-29.93-.383-43.824-.574l48.535-128.477c7.424 15.037 16.178 35.117 26.264 60.242 11.425 27.79 20.179 50.727 26.273 68.809l-8.286.569z"/>
	</symbol>
	<symbol id="twitter" viewBox="0 0 30 24.03">
		<path class="cls-1" d="M29.988 2.84a12.592 12.592 0 0 1-3.532.96A6.118 6.118 0 0 0 29.163.44a12.472 12.472 0 0 1-3.916 1.47 6.127 6.127 0 0 0-10.475 5.53A17.509 17.509 0 0 1 2.091 1.1a6.017 6.017 0 0 0 1.9 8.1 6.08 6.08 0 0 1-2.78-.75v.07a6.108 6.108 0 0 0 4.93 5.96 6.615 6.615 0 0 1-1.618.2 6.436 6.436 0 0 1-1.162-.1 6.15 6.15 0 0 0 5.746 4.21 12.444 12.444 0 0 1-7.641 2.6 11.877 11.877 0 0 1-1.464-.09 17.535 17.535 0 0 0 9.433 2.73A17.256 17.256 0 0 0 26.929 6.77l-.018-.79a12.35 12.35 0 0 0 3.075-3.14zm0 0"/>
	</symbol>
</svg>