<svg xmlns="http://www.w3.org/2000/svg" width="124" height="48" viewBox="0 0 124 48"><path fill="#191919" fill-rule="evenodd" d="M46.872 24.232a.843.843 0 0 0-.975.024A9.958 9.958 0 0 1 40.4 25.6a18.379 18.379 0 0 1-6.2-1.65 16.28 16.28 0 0 0-5.4-1.48c-2.833 0-4.609 1.421-5.18 3.043-.571-1.622-2.346-3.043-5.18-3.043a16.281 16.281 0 0 0-5.409 1.476 18.378 18.378 0 0 1-6.2 1.65 9.959 9.959 0 0 1-5.494-1.34.84.84 0 0 0-1.317.886c.08.3 2.081 7.322 12.553 7.322 7 0 10.246-2.6 11.042-4.751.8 2.154 4.041 4.751 11.042 4.751 10.472 0 12.473-7.023 12.553-7.322a.836.836 0 0 0-.338-.91zM4.781 28.7a8.84 8.84 0 0 1-2.1-2.018 13.226 13.226 0 0 0 2.516.5 13.268 13.268 0 0 1-.416 1.518zm3.749-1.532A6.83 6.83 0 0 1 7.394 30a11.491 11.491 0 0 1-1.442-.6 12.935 12.935 0 0 0 .563-1.927c.016-.07.035-.137.051-.206h.269a10.168 10.168 0 0 0 1.706-.153zm1.6 3.463c-.48-.064-.942-.141-1.371-.237a9.065 9.065 0 0 0 1.077-2.921c.056-.237.111-.466.169-.689.71-.2 1.419-.439 2.122-.7-.106.36-.193.724-.277 1.083a6.545 6.545 0 0 1-1.224 2.95 6.459 6.459 0 0 1-.492.513zm3.821-.512a6.783 6.783 0 0 1-.66.662q-.35.009-.718.009c-.26 0-.508-.01-.756-.019a8.207 8.207 0 0 0 1.343-3.3 7.916 7.916 0 0 1 .678-2.044c.777-.3 1.532-.59 2.243-.818a8.423 8.423 0 0 0-.907 2.557 6.555 6.555 0 0 1-1.219 2.952zm3.324 0a6.3 6.3 0 0 1-.195.214 16.514 16.514 0 0 1-1.843.314 8.46 8.46 0 0 0 1.248-3.174 6.06 6.06 0 0 1 .962-2.478 9.525 9.525 0 0 1 .831-.84c.052 0 .107-.009.158-.009a5.772 5.772 0 0 1 1.205.122 7.414 7.414 0 0 0-1.141 2.9 6.551 6.551 0 0 1-1.221 2.95zm1.856-.452a11.582 11.582 0 0 0 .678-2.194 6.057 6.057 0 0 1 .962-2.478c.056-.07.12-.137.181-.206a2.37 2.37 0 0 1 1.183 1.88c.004.505-.648 1.959-3 2.997zm5.964-3a2.371 2.371 0 0 1 1.183-1.88c.061.069.125.136.181.206a6.059 6.059 0 0 1 .962 2.478 11.589 11.589 0 0 0 .678 2.194c-2.348-1.037-2.999-2.491-2.999-2.997zm5.055 3.664a7.56 7.56 0 0 1-.195-.214 6.551 6.551 0 0 1-1.224-2.951 7.411 7.411 0 0 0-1.141-2.9 5.772 5.772 0 0 1 1.205-.122c.051 0 .106.007.159.009a9.493 9.493 0 0 1 .83.84 6.059 6.059 0 0 1 .962 2.478A8.462 8.462 0 0 0 32 30.646a16.514 16.514 0 0 1-1.846-.314zm4.507.457q-.368 0-.717-.009a6.772 6.772 0 0 1-.66-.662 6.555 6.555 0 0 1-1.224-2.951 8.423 8.423 0 0 0-.907-2.557c.711.228 1.466.516 2.243.818a7.905 7.905 0 0 1 .678 2.044 8.206 8.206 0 0 0 1.343 3.3c-.244.008-.492.018-.752.018zm2.444-.159a6.459 6.459 0 0 1-.5-.513 6.544 6.544 0 0 1-1.224-2.95 19.777 19.777 0 0 0-.277-1.083c.7.26 1.412.5 2.122.7.058.223.114.452.17.689a9.065 9.065 0 0 0 1.077 2.921c-.423.096-.884.173-1.369.237zm2.74-.627a6.831 6.831 0 0 1-1.135-2.836l-.012-.049a10.169 10.169 0 0 0 1.706.153h.269c.016.069.035.136.051.206a12.911 12.911 0 0 0 .563 1.927 11.506 11.506 0 0 1-1.439.597zm2.613-1.3a13.247 13.247 0 0 1-.42-1.514 13.228 13.228 0 0 0 2.516-.5 8.839 8.839 0 0 1-2.093 2.012zm-3.682 4.821c-10.365 1.813-14.492-2.152-14.529-2.188a.843.843 0 0 0-.6-.254H23.6a.843.843 0 0 0-.6.254c-.027.027-1.914 1.884-6.428 2.484-.021 0-.041 0-.062.008a26.726 26.726 0 0 1-8.039-.3.843.843 0 0 0-.8.305.834.834 0 0 0-.115.849c.185.431 4.533 10.317 14.96 13.082h.022c.292.077.587.151.889.217a.853.853 0 0 0 .18.019h.045a.853.853 0 0 0 .18-.019c11.087-2.41 15.681-12.861 15.871-13.3a.839.839 0 0 0-.928-1.16zm-4.512 2.145a9.147 9.147 0 0 0-.941 4.1c-.016.373-.039.733-.079 1.1a22.47 22.47 0 0 1-2.663 2.262 10.03 10.03 0 0 0 .573-3.289 7.491 7.491 0 0 1 .831-3.568 6.726 6.726 0 0 1 .37-.628q.909.045 1.913.02zM25.109 45.9a8.789 8.789 0 0 0 1.282-1.954 9.541 9.541 0 0 0 .912-4.106 7.483 7.483 0 0 1 .831-3.567 6.5 6.5 0 0 1 .692-1.081c.52.114 1.078.212 1.676.29l-.017.031a9.084 9.084 0 0 0-1.012 4.254 7.916 7.916 0 0 1-.753 3.464 7.179 7.179 0 0 1-1.132 1.685 18.6 18.6 0 0 1-2.479.984zm-3.664-.232a8.7 8.7 0 0 0 1.1-1.722 9.541 9.541 0 0 0 .912-4.106 7.485 7.485 0 0 1 .831-3.567 5.988 5.988 0 0 1 1.625-2c.36.154.756.305 1.19.449a8.278 8.278 0 0 0-.464.791 9.085 9.085 0 0 0-1.012 4.254 7.549 7.549 0 0 1-3.076 6.257 15.387 15.387 0 0 1-1.106-.354zM18.5 44.314c.065-.122.133-.242.191-.366a9.539 9.539 0 0 0 .912-4.106 7.485 7.485 0 0 1 .831-3.567 5.637 5.637 0 0 1 3.208-2.877c.165-.054.3-.089.4-.112.08.053.163.106.253.162a7.84 7.84 0 0 0-1.512 2.068 9.085 9.085 0 0 0-1.012 4.254 7.914 7.914 0 0 1-.753 3.464A7.181 7.181 0 0 1 19.82 45q-.682-.324-1.32-.686zm-3.03-2.106a11.363 11.363 0 0 0 .284-2.366 7.483 7.483 0 0 1 .831-3.567 6.531 6.531 0 0 1 .522-.844A18.918 18.918 0 0 0 19.228 35a6.9 6.9 0 0 0-.29.518 9.084 9.084 0 0 0-1.012 4.254 7.917 7.917 0 0 1-.753 3.464c-.03.063-.066.125-.1.187a22.458 22.458 0 0 1-1.601-1.215zm-4.258-6.64a9.3 9.3 0 0 0-.525 1.255c-.346-.522-.635-1-.866-1.4.479.058.942.106 1.393.145zm.781 3.056a6.845 6.845 0 0 1 .743-2.349 6.591 6.591 0 0 1 .356-.607q1.02.021 1.937-.03a9.138 9.138 0 0 0-.954 4.131 16.69 16.69 0 0 1-.075 1.1 25.046 25.046 0 0 1-2.005-2.245zm23.07.228a6.757 6.757 0 0 1 .768-2.577 6.484 6.484 0 0 1 .441-.73 34.07 34.07 0 0 0 1.144-.125 26.066 26.066 0 0 1-2.351 3.432zM28.8 20.8a10.063 10.063 0 0 1 2.675.415 8.737 8.737 0 0 0 .98-4.027 8.857 8.857 0 0 0-17.714 0 8.734 8.734 0 0 0 .986 4.037 10.12 10.12 0 0 1 2.713-.425q.378 0 .745.03a5.734 5.734 0 1 1 8.821 0c.26-.023.524-.03.794-.03zM6.836 23.926a17.315 17.315 0 0 0 5.583-1.535 68.985 68.985 0 0 1 1.7-.644 10.382 10.382 0 0 1-1.056-4.559 10.539 10.539 0 0 1 21.077 0 10.382 10.382 0 0 1-1.05 4.546c.571.206 1.148.428 1.736.658a17.313 17.313 0 0 0 5.581 1.534 11.585 11.585 0 0 0 2.123-.189 5.084 5.084 0 0 0 .174-1.309V7.61a4.705 4.705 0 0 0-4.571-4.829h-7.556c-.79 0-2.494-2.779-3.391-2.779h-7.177c-.9 0-2.6 2.779-3.391 2.779H9.065A4.705 4.705 0 0 0 4.494 7.61v14.813a5.075 5.075 0 0 0 .172 1.3 11.517 11.517 0 0 0 2.169.198zm.629-17a1.253 1.253 0 0 1 1.255-1.25h3.809a1.253 1.253 0 0 1 1.255 1.25v.468a1.252 1.252 0 0 1-1.255 1.25h-3.81a1.252 1.252 0 0 1-1.255-1.25v-.468zM23.6 12.937a4.247 4.247 0 1 0 4.263 4.246 4.26 4.26 0 0 0-4.263-4.246zm39.812 9.745a5.769 5.769 0 0 0 3.835-1.412v-5.214h-4.128v1.719h2.236v2.553a2.618 2.618 0 0 1-1.69.525c-2.381 0-3.654-1.629-3.654-4.327 0-2.661 1.418-4.29 3.526-4.29a3.109 3.109 0 0 1 2.363.977l1.164-1.3a4.834 4.834 0 0 0-3.545-1.5c-3.2 0-5.671 2.3-5.671 6.174 0 3.922 2.399 6.095 5.562 6.095zm13.322-5.251c0 2.571-1 3.422-2.453 3.422-1.436 0-2.418-.851-2.418-3.422v-6.807h-2.108v6.645c0 3.892 1.763 5.413 4.526 5.413 2.744 0 4.489-1.521 4.489-5.413v-6.645h-2.036v6.807zm13.323-3.3c0-2.643-1.909-3.512-4.381-3.512h-4V22.46h2.108v-4.63h1.8l2.563 4.635h2.363l-2.835-4.943a3.309 3.309 0 0 0 2.38-3.386zm-4.6 2.028h-1.672v-3.856h1.672c1.636 0 2.509.47 2.509 1.828-.001 1.345-.874 2.033-2.51 2.033zm13.959 1.267c0 2.571-1 3.422-2.454 3.422-1.436 0-2.418-.851-2.418-3.422v-6.807h-2.108v6.645c0 3.892 1.763 5.413 4.526 5.413 2.745 0 4.49-1.521 4.49-5.413v-6.645h-2.036v6.807zM67.67 31.22c-.281 1.259-.527 2.519-.808 3.778h-.07l-.948-3.778-1.9-7h-.629l-1.9 7a148.022 148.022 0 0 0-.913 3.778h-.07l-.843-3.778-1.545-7h-.6l2.7 11.545h.562l2.213-8.291c.211-.91.457-1.679.667-2.589h.07c.211.91.422 1.679.632 2.589l2.248 8.291h.562l2.669-11.545h-.562zm4.848-1.365h4.741v-.489h-4.741v-4.653h5.654v-.49h-6.216v11.545h6.392v-.491h-5.83v-5.422zm10.853-5.632h-2.6v11.545h2.6c3.582 0 5.2-2.379 5.2-5.808s-1.618-5.737-5.2-5.737zm-.07 11.054h-1.967V24.713H83.3c3.3 0 4.671 2.2 4.671 5.247S86.6 35.277 83.3 35.277zm10.5-11.054h-2.6v11.545h2.6c3.582 0 5.2-2.379 5.2-5.808s-1.616-5.737-5.201-5.737zm-.07 11.054h-1.967V24.713h1.967c3.3 0 4.671 2.2 4.671 5.247s-1.368 5.317-4.669 5.317zm7.9.491h.569V24.223h-.562v11.545zm10.993-4.058c0 1.084.035 2.134.07 3.253h-.07l-1.334-2.274-5.128-8.466h-.6v11.545h.538v-7.591c0-1.085-.035-2.064-.07-3.149h.07l1.334 2.274 5.128 8.466h.6V24.223h-.527v7.487zm7.939-1.5v.49h2.879v3.813a4.02 4.02 0 0 1-2.774.945c-2.7 0-4.32-2.169-4.32-5.493s1.686-5.422 4.461-5.422a3.5 3.5 0 0 1 2.739 1.225l.351-.385a4.078 4.078 0 0 0-3.09-1.364c-3.056 0-5.058 2.308-5.058 5.946s1.932 6.018 4.882 6.018a4.46 4.46 0 0 0 3.371-1.295V30.21h-3.441z"/></svg>