<svg version="1" xmlns="http://www.w3.org/2000/svg" width="666.667" height="666.667" viewBox="0 0 500.000000 500.000000"><path d="M214 86.7c-4.3 4.3-8.8 8.7-10 9.8-2.1 1.9-4 2-34.4 2.5l-32.1.5-5.8 2.9c-6.8 3.5-12 9-15.6 16.6l-2.6 5.5v61.2c0 45.4.3 61.5 1.2 62.4.7.7 5.3 1.3 11 1.5 11.9.4 20.1-1.5 41.8-9.8l14.1-5.3-2.8-8c-5.5-16.4-5.6-33.4-.3-49 8.3-24.2 30.9-43.9 55.9-49 39.9-8 78.6 16.4 88.6 55.9 3.1 12.3 2.3 29.1-1.8 41-1.8 5-3.1 9.1-2.9 9.2.7.6 31.2 11.5 36.2 12.9 6.1 1.8 20.1 2.7 26.7 1.8 2.7-.4 3.9-1.1 4.5-2.7 1.2-3.7 1-115.5-.2-121.1-3-13.3-12.8-23.2-25.7-26.1-.5-.1-14.6-.2-31.4-.3l-30.7-.1-7.9-8.2c-12.3-12.7-9-11.8-40.6-11.8h-27.4l-7.8 7.7zm-37.5 35.4c5.5 5.4 3.2 16.7-3.5 18-1.9.4-9.7.7-17.4.7-11 0-14.7-.4-16.8-1.6-6.5-3.8-5.5-16.5 1.5-19.1 1-.4 9-.6 17.8-.6 15.6.1 16 .1 18.4 2.6z"/><path d="M239.5 139.6c-15.1 3.2-24 7.9-34 17.9-8.2 8.1-12.7 15.1-15.9 24.8-2.3 7-2.9 11-2.9 20.8 0 8.5.6 11.2 4.5 22l2 5.7 3.4-.9c4.5-1.3 10.9-2.1 16.6-2.1h4.6l-2.8-4.7c-7.1-11.6-7.9-26.7-2.1-38.5 13.1-26.7 47.6-31.6 67.4-9.7 12 13.3 13.7 32.3 4.3 48.4l-2.6 4.4h5.3c2.8 0 8.3.6 12.1 1.3 7.9 1.5 7.4 1.9 10.8-8.5 1.9-5.7 2.3-9.2 2.3-18.5 0-6.8-.6-13.6-1.4-16.5-2-7.2-8.4-19.2-13.2-24.8-8.3-9.6-23.3-18.4-35.3-20.6-5.7-1.1-19-1.3-23.1-.5z"/><path d="M241.2 172.9c-26.5 8.3-29.3 44-4.4 56.3 6.7 3.3 19.8 3.3 26 0 17.7-9.4 22.7-30.3 10.9-45.8-7.6-10-20.6-14.2-32.5-10.5zm-30.5 66.7c-.1.1-2.3.4-4.8.7-7.2.9-11.9 2.3-31.7 9.8-16.9 6.4-24.8 9-32.7 10.7-1.6.3-7.9.6-14 .6-13 0-22.9-2.1-32.8-7-7.3-3.7-10.9-3.7-12.8-.3-2.8 5.2 4.7 19.6 16 31 13 12.9 29.4 20.7 51.9 24.5 5.8 1 36.3 1.3 41.3.4 2.4-.4 6.2-1.1 8.4-1.4 9.9-1.4 20.5-5.2 33.1-12 4.3-2.2 13.9-11.9 15.6-15.6 1.6-3.7 2.2-3.8 3.7-.2 4.4 10.7 23.2 22.3 42.7 26.6 10.4 2.3 12.8 2.6 26.9 3.2 29.6 1.4 54.4-5 73.2-18.9 13.6-10.1 26.8-31.2 23.4-37.5-1.9-3.5-4.7-3.6-11.7-.2-10.2 4.9-20.3 7.1-32.9 7.3-15.9.3-20.9-.9-48-11.3-21.8-8.3-29.5-10.3-39-10.3-14.7 0-28.7 6.8-34 16.7-2.2 4.1-3.1 4.5-4 1.5-1.1-3.2-7.1-9.5-12-12.3-4.9-2.9-14.6-5.7-21.1-6-2.4-.1-4.5-.1-4.7 0zm10 12.8c.1.1-.9 2.4-2.2 5.1-1.3 2.8-3.7 9.9-5.3 16-2.7 10.3-5.4 16.8-8.4 20.6-1.2 1.4-12.6 4.4-13.5 3.6-.2-.2 1-3.3 2.6-6.8 1.5-3.5 3.6-9.8 4.6-13.9 3-12.6 5.2-17.5 9.9-21.8 3.9-3.6 4.8-4 8.2-3.5 2.2.3 4 .6 4.1.7zm71.6 3.6c3.7 4.2 7 10.8 8.1 16.5 1.3 6.8 4.1 15.7 6.2 19.8 1.3 2.7 2.4 5 2.4 5.2 0 .5-7.4-.6-10.6-1.6-4.3-1.3-8.5-9.4-11.9-22.9-1.5-5.8-3.7-12.7-5.1-15.3-1.3-2.7-2.4-5-2.4-5.2 0-.3 3.9-.9 7.8-1.1.7 0 3.2 2 5.5 4.6zm-97.5 1.2c-.8 1.3-1.7 3.2-2 4.3-.3 1.1-2 7.1-3.7 13.3-3.6 13.2-4.6 15.4-9.4 20.5-3.2 3.3-4.1 3.7-8.7 3.7h-5.2l2.5-4.3c1.4-2.3 3.4-7.5 4.6-11.5 1.2-3.9 3-10.3 4.1-14.1 1.1-3.7 2.6-7.4 3.4-8 1-.9 13.8-5.9 15.5-6.1.2 0-.3 1-1.1 2.2zm116.6.3c3.8 1.4 7.5 3 8.2 3.6 1.5 1.2 3.6 7.3 5.9 17.4.9 3.8 3.2 10 5.1 13.7l3.3 6.8h-5.4c-5.1 0-5.5-.2-8.8-4.3-4.5-5.5-6.1-9.2-9.2-21.1-1.4-5.4-3.4-11.8-4.4-14.2-1.1-2.4-1.9-4.4-1.8-4.4.1 0 3.3 1.1 7.1 2.5zm-73.9 5.9c3.8 7.5 0 15.1-11.3 22.8-7 4.9-8.6 5-6.8.5.8-1.7 2.4-7.3 3.6-12.2 2.3-9.3 4.1-13.7 6.8-16.8 1.5-1.6 1.7-1.6 3.9.5 1.3 1.2 3 3.5 3.8 5.2zm39.5 11.4c1.6 5.9 3.3 12 3.9 13.5l1.1 2.8-5.1-2.8c-5.9-3.3-12.3-9.2-14.6-13.7-2.9-5.4-1.1-12.3 4.3-16.5l2.7-2.1 2.5 4c1.3 2.3 3.7 8.9 5.2 14.8zm-109.5-8.6c-.2.7-1.3 5.1-2.5 9.7-2.3 9.2-4.6 14.2-8.6 19-2.3 2.8-3 3.1-6.3 2.5-6.4-1-6.4-1-4.1-5.4 1.1-2.2 3.1-7.9 4.4-12.7l2.2-8.6 7.5-2.7c4.1-1.5 7.5-2.8 7.6-2.9.1 0 .1.5-.2 1.1zm173 2.1l6.8 2.3 2.3 8.7c1.3 4.8 3.2 10.4 4.4 12.6 2.2 4.4 2.4 4.2-4.6 5.6-2.7.5-3.5.1-5.8-2.6-1.5-1.7-3.6-4.9-4.7-7-2.3-4.6-7.1-21.9-6-21.9.4 0 3.8 1 7.6 2.3zM105 271c1.9.6 5.5 1.3 8 1.6 2.5.3 4.6.7 4.8.9.1.1-.3 2.5-1 5.4l-1.1 5.1-2.6-1.6c-3.5-2.2-7.9-6.3-10.3-9.7-1-1.5-1.8-2.7-1.6-2.7.2 0 1.9.5 3.8 1zm292 2.1c-1.3 1.7-4.5 4.9-7.3 7.1l-5.1 4-1.4-5.2c-.7-2.9-1.2-5.4-1-5.5.2-.2 2.3-.6 4.8-.9 2.5-.3 5.9-1 7.5-1.5 4.6-1.4 4.8-1.3 2.5 2zm-255.4 1.6c-.3 1-.8 3.1-1.2 4.8-1.1 4.8-5.6 13.5-7 13.5-.7 0-3-.8-5.1-1.7-2.1-1-3.9-1.8-4-1.9-.2 0 .6-3.4 1.6-7.5 2.1-8.1 2.1-8.2 11.3-8.7 4.4-.2 4.9-.1 4.4 1.5zm230.2-.2c.2.2.9 2.5 1.6 5.1.7 2.7 1.6 5.9 2 7.2.6 1.9.2 2.5-3.6 4.2-5.6 2.5-6.1 2.5-8-.8-1.6-2.6-5.8-14.6-5.8-16.4 0-.8 12.9-.1 13.8.7z"/><path d="M241.3 305.9c-8.6 5.9-20 10.4-33.1 13.2-15.7 3.4-49.7 3.1-66.8-.6-2.7-.6-6.2 1.9-6.6 4.8-.5 2.6 3.5 10.9 10.3 21.9 21.6 34.9 52.6 60.3 88.7 72.5 14 4.8 18.4 4.8 32.5 0 39.7-13.5 74.6-44.4 95.3-84.3 6.5-12.6 3.8-16.6-9.5-13.9-13.5 2.6-44.6 2.7-58.6 0-13.6-2.6-28.1-8.4-37-14.9-2.7-2-5.7-3.6-6.5-3.6-.8.1-4.7 2.3-8.7 4.9zm12.7 11.8c0 .3-1.8 2.9-4 5.8-8.6 11.1-12.2 22.7-13.5 42.9-.7 10.7-3.7 20-9 28-3.3 5-4.1 5.7-6.2 5.1-4.1-1-7.5-3.7-6.9-5.4.3-.9 1.6-4.8 3-8.6 2.4-7 3-10.1 4.1-24.9 1.3-15.3 6-26.2 15-34.5 5.9-5.4 17.5-11 17.5-8.4zm18.1 8.5l2.6.9-2.9 5.4c-4.2 7.8-6.6 17-7.2 28.3-.8 12-2.1 18.8-5.1 25.5-2.7 6.2-8.4 14-13.5 18.4-3.5 3.1-4 3.2-7.1 2.1-1.9-.6-3.5-1.2-3.7-1.3-.2-.2 1.2-2.7 3-5.6 6.7-10.8 9.3-18.8 10.3-32.4 1-13.7 1.6-17.8 3.5-22.7 4.1-10.8 12.6-21.6 15.9-20.3.9.4 2.8 1.1 4.2 1.7zm-56.4 8.5c-3.7 7.1-5.6 14.7-6.2 24.3-.8 13.3-1.6 18.1-3.8 24-1.1 3-2.1 5.7-2.3 5.9-.2.2-2.9-1.6-6-3.9-5.5-4.3-5.6-4.4-5-8.4.4-2.3.9-7 1.1-10.6 1.4-16.9 1.7-18.4 6-27.3 2.4-4.8 3.4-5.9 6.4-6.7 5.6-1.5 11.6-2.7 11.9-2.4.2.1-.8 2.4-2.1 5.1zm79.8-2.8c1.7.4 2.9 1.1 2.8 1.7-.2.5-1.4 4-2.7 7.7-2.4 6.7-2.9 10-4.1 26.2-.8 9.7-3.9 19.3-8.9 26.7-3.7 5.6-6.3 7.3-17.8 11.4l-3.7 1.3 3.8-5.7c4.4-6.4 8.6-15.9 9.5-21.2.3-1.9.8-4.5 1-5.7.3-1.2.7-6.7 1.1-12.3.6-10.9 2.1-16.4 6.7-25.3 3.3-6.1 4.4-6.6 12.3-4.8zm-134.8 1.5c.2.1-.5 2.1-1.4 4.4l-1.6 4.2-2.9-4.2c-1.5-2.4-2.8-4.6-2.8-5 0-.6 8.1-.1 8.7.6zm187.3-.5c0 .9-10.8 17-13.6 20.4-2.7 3.3-2.9 2.3-1-4.9 2.2-8.4 6.4-15.2 9.5-15.6 4.2-.5 5.1-.5 5.1.1zm-161.9 6.6c-2.2 5.8-3.9 14.5-4.5 23.3-.2 3.5-.6 6.5-.9 6.8-.5.5-7.7-6.8-11.8-12-2-2.6-2.1-3.2-1.1-7.7.7-2.8 2.4-7.4 3.8-10.4l2.7-5.4 6.1-.3c3.4-.2 6.4-.1 6.8.2.4.3-.1 2.8-1.1 5.5zm137.4.8c-2.7 7.3-3.3 10.9-4.1 22.4-.6 8.4-.6 8.4-4.9 12.4-5.2 4.8-12.8 10.9-13.6 10.9-.3 0 0-2.4.8-5.3.7-2.8 1.6-9 1.8-13.7.9-14.5 2.2-20.5 6.1-28.2l2.4-4.8h13.8l-2.3 6.3z"/></svg>