<svg xmlns="http://www.w3.org/2000/svg" width="184" height="72" viewBox="0 0 184 72"><path fill="#fff" fill-rule="evenodd" d="M69.559 36.349a1.24 1.24 0 0 0-1.447.036c-.021.016-2.8 2.01-8.15 2.01-2.9 0-6.1-1.259-9.191-2.476-2.894-1.139-5.627-2.219-8.025-2.219-4.2 0-6.837 2.132-7.684 4.565-.848-2.429-3.482-4.565-7.685-4.565-2.4 0-5.131 1.076-8.024 2.215-3.093 1.217-6.291 2.476-9.191 2.476-5.354 0-8.129-1.995-8.15-2.01a1.24 1.24 0 0 0-1.447-.036 1.261 1.261 0 0 0-.507 1.365c.118.452 3.086 10.99 18.623 10.99 10.386 0 15.2-3.9 16.381-7.127 1.18 3.227 5.994 7.127 16.381 7.127 15.536 0 18.5-10.536 18.623-10.984a1.26 1.26 0 0 0-.507-1.367zm-62.445 6.7A13.182 13.182 0 0 1 4 40.022a19.433 19.433 0 0 0 3.733.756 20.1 20.1 0 0 1-.619 2.272zm5.561-2.3A10.3 10.3 0 0 1 10.991 45a16.744 16.744 0 0 1-2.139-.906 19.487 19.487 0 0 0 .836-2.89c.024-.1.052-.2.076-.309.133 0 .262.008.4.008a14.89 14.89 0 0 0 2.532-.23zm2.38 5.194c-.713-.1-1.4-.21-2.035-.356a13.689 13.689 0 0 0 1.6-4.381c.083-.356.165-.7.252-1.034 1.054-.3 2.1-.659 3.149-1.049-.157.54-.286 1.086-.411 1.625a9.89 9.89 0 0 1-1.815 4.426 9.819 9.819 0 0 1-.739.771zm5.668-.768a9.947 9.947 0 0 1-.979.993q-.519.014-1.064.014c-.386 0-.753-.015-1.122-.029a12.39 12.39 0 0 0 1.992-4.947 11.938 11.938 0 0 1 1.007-3.066c1.152-.453 2.273-.886 3.327-1.228a12.735 12.735 0 0 0-1.345 3.836 9.891 9.891 0 0 1-1.815 4.429zm4.932 0c-.091.108-.19.215-.289.321a24.177 24.177 0 0 1-2.734.472 12.775 12.775 0 0 0 1.851-4.762 9.149 9.149 0 0 1 1.427-3.717 14.167 14.167 0 0 1 1.232-1.26c.077 0 .16-.014.235-.014a8.446 8.446 0 0 1 1.788.183 11.193 11.193 0 0 0-1.693 4.35 9.889 9.889 0 0 1-1.816 4.429zm2.753-.678a17.476 17.476 0 0 0 1.006-3.291 9.144 9.144 0 0 1 1.427-3.717c.084-.1.178-.206.269-.309A3.562 3.562 0 0 1 32.866 40c0 .761-.966 2.942-4.457 4.5zM37.257 40a3.562 3.562 0 0 1 1.755-2.82c.091.1.186.2.269.309a9.144 9.144 0 0 1 1.427 3.717 17.476 17.476 0 0 0 1.006 3.294c-3.489-1.558-4.457-3.739-4.457-4.5zm7.5 5.5c-.1-.107-.2-.213-.289-.321a9.889 9.889 0 0 1-1.816-4.427 11.19 11.19 0 0 0-1.693-4.35 8.448 8.448 0 0 1 1.788-.183c.075 0 .158.011.235.014a14.137 14.137 0 0 1 1.232 1.26 9.148 9.148 0 0 1 1.427 3.717 12.777 12.777 0 0 0 1.851 4.762 24.179 24.179 0 0 1-2.735-.472zm6.686.686q-.545 0-1.064-.014a8.048 8.048 0 0 1-2.795-5.42 12.741 12.741 0 0 0-1.345-3.836c1.054.342 2.175.775 3.327 1.228a11.934 11.934 0 0 1 1.007 3.066 12.39 12.39 0 0 0 1.992 4.947c-.365.013-.736.028-1.122.028zm3.625-.239a7.9 7.9 0 0 1-2.552-5.195 30.433 30.433 0 0 0-.411-1.625c1.044.39 2.095.753 3.148 1.049.087.335.169.678.252 1.034a13.689 13.689 0 0 0 1.6 4.381c-.64.144-1.324.259-2.037.354zM59.133 45a10.306 10.306 0 0 1-1.685-4.254l-.018-.073a14.89 14.89 0 0 0 2.532.23c.136 0 .265-.006.4-.008.024.1.052.2.076.309a19.512 19.512 0 0 0 .836 2.89 16.733 16.733 0 0 1-2.141.906zm3.876-1.955a20.075 20.075 0 0 1-.623-2.272 19.424 19.424 0 0 0 3.733-.756 13.176 13.176 0 0 1-3.11 3.033zm-5.462 7.232C42.169 53 36.046 47.053 35.992 47a1.243 1.243 0 0 0-.894-.38h-.069a1.243 1.243 0 0 0-.893.38c-.04.041-2.84 2.828-9.537 3.726-.031 0-.061.008-.092.014a39.265 39.265 0 0 1-11.926-.457 1.243 1.243 0 0 0-1.193.457 1.263 1.263 0 0 0-.17 1.274c.274.647 6.725 15.477 22.194 19.625l.033.008c.433.116.871.227 1.318.325a1.221 1.221 0 0 0 .267.029h.07a1.223 1.223 0 0 0 .267-.029C51.816 68.357 58.63 52.68 58.912 52.014a1.263 1.263 0 0 0-.17-1.274 1.242 1.242 0 0 0-1.195-.459zM50.853 53.5a13.844 13.844 0 0 0-1.4 6.156c-.024.56-.057 1.1-.117 1.651a33.387 33.387 0 0 1-3.95 3.392 15.2 15.2 0 0 0 .849-4.934 11.337 11.337 0 0 1 1.233-5.352 10.086 10.086 0 0 1 .55-.943q1.346.066 2.835.03zM37.272 68.857a13.237 13.237 0 0 0 1.9-2.932 14.449 14.449 0 0 0 1.353-6.16 11.338 11.338 0 0 1 1.233-5.352 9.765 9.765 0 0 1 1.026-1.62c.771.17 1.6.317 2.486.434l-.026.046a13.761 13.761 0 0 0-1.5 6.383 11.984 11.984 0 0 1-1.117 5.2 10.79 10.79 0 0 1-1.679 2.528 27.676 27.676 0 0 1-3.676 1.473zm-5.436-.349a13.063 13.063 0 0 0 1.627-2.583 14.449 14.449 0 0 0 1.353-6.16 11.337 11.337 0 0 1 1.233-5.352 8.969 8.969 0 0 1 2.41-3c.534.231 1.121.458 1.765.673a12.713 12.713 0 0 0-.688 1.186 13.762 13.762 0 0 0-1.5 6.383 11.983 11.983 0 0 1-1.117 5.2 11.744 11.744 0 0 1-3.447 4.19 30.985 30.985 0 0 1-1.635-.537zm-4.367-2.034c.1-.182.2-.364.284-.549a14.446 14.446 0 0 0 1.353-6.16 11.339 11.339 0 0 1 1.233-5.352A8.389 8.389 0 0 1 35.1 50.1a6.053 6.053 0 0 1 .593-.169c.119.079.242.16.376.243a11.765 11.765 0 0 0-2.243 3.1 13.76 13.76 0 0 0-1.5 6.383 11.983 11.983 0 0 1-1.117 5.2 10.807 10.807 0 0 1-1.784 2.644q-1.012-.486-1.955-1.027zm-4.495-3.159a17.23 17.23 0 0 0 .421-3.55 11.338 11.338 0 0 1 1.233-5.352 9.867 9.867 0 0 1 .775-1.265 27.572 27.572 0 0 0 3.142-.651c-.148.248-.292.5-.43.776a13.76 13.76 0 0 0-1.5 6.383 11.983 11.983 0 0 1-1.117 5.2c-.045.095-.1.187-.146.281a32.822 32.822 0 0 1-2.377-1.822zm-6.318-9.962a14.12 14.12 0 0 0-.779 1.883c-.513-.783-.942-1.5-1.285-2.1q1.064.132 2.066.217zm1.158 4.585a10.725 10.725 0 0 1 1.631-4.435q1.513.033 2.873-.044a13.836 13.836 0 0 0-1.416 6.2c-.024.557-.051 1.1-.112 1.655a37.569 37.569 0 0 1-2.974-3.376zm34.227.342a10.243 10.243 0 0 1 1.139-3.867 10.021 10.021 0 0 1 .654-1.094 47.177 47.177 0 0 0 1.7-.188 39.055 39.055 0 0 1-3.491 5.149zm-9.3-27.089a14.787 14.787 0 0 1 3.969.623 13.14 13.14 0 1 0-23.363.015 14.865 14.865 0 0 1 4.025-.639c.374 0 .743.016 1.106.046a8.506 8.506 0 1 1 13.087.007c.391-.033.783-.052 1.181-.052zm-32.579 4.691c2.429 0 5.4-1.17 8.283-2.3.852-.335 1.69-.662 2.517-.965a15.635 15.635 0 1 1 28.145-.02c.846.309 1.7.643 2.575.986 2.877 1.132 5.851 2.3 8.28 2.3a16.923 16.923 0 0 0 3.15-.284 7.7 7.7 0 0 0 .259-1.963V11.413A7.023 7.023 0 0 0 56.59 4.17H45.385c-1.172 0-3.7-4.17-5.031-4.17H29.706c-1.331 0-3.859 4.17-5.031 4.17H13.469a7.023 7.023 0 0 0-6.781 7.243v22.222a7.692 7.692 0 0 0 .256 1.95 16.871 16.871 0 0 0 3.218.297zm.933-25.507A1.868 1.868 0 0 1 12.956 8.5h5.65a1.868 1.868 0 0 1 1.861 1.875v.7a1.868 1.868 0 0 1-1.861 1.875h-5.65a1.868 1.868 0 0 1-1.861-1.875v-.7zm83 23.648a8.5 8.5 0 0 0 5.69-2.118v-7.822h-6.121v2.58h3.317v3.83a3.856 3.856 0 0 1-2.508.787c-3.533 0-5.42-2.444-5.42-6.491 0-3.992 2.1-6.437 5.231-6.437a4.59 4.59 0 0 1 3.506 1.467l1.726-1.955a7.138 7.138 0 0 0-5.259-2.254c-4.746 0-8.413 3.45-8.413 9.262-.001 5.892 3.556 9.151 8.25 9.151zm19.765-7.876c0 3.856-1.483 5.133-3.64 5.133-2.13 0-3.586-1.277-3.586-5.133V15.934H103.5V25.9c0 5.839 2.616 8.121 6.715 8.121 4.072 0 6.661-2.282 6.661-8.121v-9.966h-3.021v10.213zm19.764-4.947c0-3.966-2.831-5.27-6.5-5.27h-5.932V33.7h3.128v-6.956h2.67l3.8 6.953h3.51l-4.207-7.415a4.96 4.96 0 0 0 3.531-5.082zm-6.824 3.046h-2.481V18.46h2.481c2.427 0 3.721.706 3.721 2.743.002 2.011-1.292 3.043-3.721 3.043zm20.709 1.9c0 3.856-1.484 5.133-3.641 5.133-2.131 0-3.587-1.277-3.587-5.133V15.934h-3.127V25.9c0 5.839 2.615 8.121 6.714 8.121 4.072 0 6.661-2.282 6.661-8.121v-9.966h-3.02v10.213zm-47.1 20.684c-.416 1.889-.781 3.778-1.2 5.667h-.1l-1.407-5.667-2.813-10.5h-.938l-2.814 10.5c-.469 1.889-.938 3.778-1.355 5.667h-.1l-1.251-5.667-2.292-10.5h-.886l4.012 17.318h.835l3.282-12.437c.313-1.364.678-2.519.99-3.883h.1c.312 1.364.625 2.519.937 3.883l3.335 12.437h.834l3.959-17.318h-.833zm7.193-2.046h7.034v-.734h-7.034v-6.98H116v-.735h-9.223v17.318h9.483v-.735h-8.649v-8.134zm16.1-8.449h-3.856v17.318h3.856c5.314 0 7.711-3.569 7.711-8.711s-2.39-8.607-7.704-8.607zm-.1 16.583h-2.917V37.07h2.915c4.9 0 6.93 3.306 6.93 7.871s-2.03 7.977-6.93 7.977zm15.581-16.583h-3.856v17.318h3.856c5.315 0 7.712-3.569 7.712-8.711s-2.395-8.607-7.71-8.607zm-.1 16.583h-2.918V37.07h2.918c4.9 0 6.93 3.306 6.93 7.871s-2.035 7.977-6.932 7.977zm11.725.735h.834V36.335h-.834v17.318zm16.309-6.087c0 1.627.052 3.2.1 4.88h-.1l-1.98-3.411-7.607-12.7h-.885v17.318h.781V42.266c0-1.627-.052-3.1-.1-4.723h.1l1.98 3.411 7.607 12.7h.887V36.335h-.782v11.23zm11.778-2.257v.735h4.272v5.72a5.927 5.927 0 0 1-4.116 1.417c-4.012 0-6.409-3.254-6.409-8.239s2.5-8.134 6.617-8.134a5.17 5.17 0 0 1 4.064 1.837l.521-.577a6.026 6.026 0 0 0-4.585-2.046c-4.533 0-7.5 3.463-7.5 8.921s2.866 9.026 7.243 9.026a6.584 6.584 0 0 0 5-1.942v-6.718h-5.106z"/></svg>