<svg xmlns="http://www.w3.org/2000/svg" width="72" height="72" viewBox="0 0 72 72"><defs><style>.cls-1{opacity:.8}.cls-2{fill:#fff;opacity:.7}.cls-3{fill:#191919;fill-rule:evenodd}</style></defs><g id="play_копия_2" data-name="play копия 2" class="cls-1"><circle class="cls-2" cx="36" cy="36" r="34.375"/><path id="Forma_1" data-name="Forma 1" class="cls-3" d="M856.175 702A36 36 0 1 0 843 751.176 36 36 0 0 0 856.175 702zM839.4 744.939a28.8 28.8 0 1 1 10.54-39.339 28.8 28.8 0 0 1-10.54 39.339zm-1.438-26.4l-18.852-10.994c-1.718-1-3.1-.2-3.094 1.786l.1 21.822c.009 1.987 1.411 2.8 3.134 1.8l18.708-10.8c1.715-.995 1.718-2.613.003-3.616z" transform="translate(-789 -684)"/></g></svg>